<?xml version="1.0" encoding="UTF-8" standalone="no"?><!DOCTYPE svg PUBLIC "-//W3C//DTD SVG 1.1//EN" "http://www.w3.org/Graphics/SVG/1.1/DTD/svg11.dtd"><svg width="100%" height="100%" viewBox="0 0 834 834" version="1.1" xmlns="http://www.w3.org/2000/svg" xmlns:xlink="http://www.w3.org/1999/xlink" xml:space="preserve" xmlns:serif="http://www.serif.com/" style="fill-rule:evenodd;clip-rule:evenodd;stroke-linejoin:round;stroke-miterlimit:2;"><g id="IterFun-Logo" serif:id="IterFun Logo"><circle cx="416.667" cy="416.667" r="416.667" style="fill:#3670a0;"/><path d="M416.667,62.5c195.47,0 354.166,158.697 354.166,354.167c0,195.47 -158.696,354.166 -354.166,354.166c-195.47,0 -354.167,-158.696 -354.167,-354.166c-0,-195.47 158.697,-354.167 354.167,-354.167Zm-0,59.028c162.891,-0 295.139,132.247 295.139,295.139c-0,162.891 -132.248,295.139 -295.139,295.139c-162.892,-0 -295.139,-132.248 -295.139,-295.139c-0,-162.892 132.247,-295.139 295.139,-295.139Z" style="fill:#fefefe;"/><path d="M320.142,236.283l-0,56.306l23.487,0.161l23.408,0.241l18.179,44.884l-73.681,123.553c-40.541,67.969 -73.842,123.793 -74.003,124.195c-0.161,0.322 16.812,0.563 37.725,0.483l38.047,-0l31.773,-49.63c58.881,-92.101 71.751,-112.05 72.153,-111.728c0.161,0.241 15.524,39.977 34.025,88.401c18.5,48.343 33.944,87.838 34.347,87.838c2.011,-0.322 109.314,-32.738 109.877,-33.221c0.483,-0.483 -16.65,-55.824 -17.696,-57.111c-0.161,-0.241 -11.663,3.379 -25.659,7.883c-13.997,4.585 -25.499,8.124 -25.58,7.964c-0.16,-0.081 -25.418,-65.396 -56.065,-145.029l-55.904,-144.788l-47.217,-0.241l-47.216,-0.161Z" style="fill:#fed140;fill-rule:nonzero;"/></g></svg>